<?xml version="1.0" encoding="utf-8"?>
<!-- Generator: Adobe Illustrator 22.1.0, SVG Export Plug-In . SVG Version: 6.00 Build 0)  -->
<svg version="1.1" xmlns="http://www.w3.org/2000/svg" xmlns:xlink="http://www.w3.org/1999/xlink" x="0px" y="0px"
	 viewBox="0 0 64 64" style="enable-background:new 0 0 64 64;" xml:space="preserve">
<style type="text/css">
	.st0{fill:#D05534;}
	.st1{fill:#D2A483;}
	.st2{fill:#2E0900;}
	.st3{fill:#D1A282;}
	.st4{fill:#E8B58F;}
	.st5{fill:#A8734B;}
	.st6{fill:#D04434;}
	.st7{fill:#D3A484;}
	.st8{fill:#4C3729;}
	.st9{fill:#33241A;}
	.st10{fill:#4F4138;}
	.st11{fill:#2B2420;}
	.st12{fill:#403965;}
	.st13{fill:#623816;}
	.st14{fill:#CEA182;}
	.st15{fill:#2C2849;}
	.st16{fill:#7F4438;}
	.st17{fill:#8E4F44;}
	.st18{fill:#1D2017;}
	.st19{fill:#D2D0D6;}
	.st20{fill:#DAD9DB;}
	.st21{fill:#964F2F;}
</style>
<g id="Capa">
	<path class="st0" d="M31.3,48.1L31.3,48.1c5.2,0,9.5-4.2,9.5-9.5V23.7c0-2-1.6-3.6-3.6-3.6H25.4c-2,0-3.6,1.6-3.6,3.6v14.9
		C21.8,43.9,26,48.1,31.3,48.1z"/>
</g>
<g id="Cara">
	<g>
		
			<rect x="29.6" y="18.1" transform="matrix(-1 -4.480473e-11 4.480473e-11 -1 62.852 40.4946)" class="st1" width="3.6" height="4.3"/>
		<g>
			<path class="st2" d="M36.4,18.6L36,15.2l-1.1,0.1l0.4,3.4c0,0.3,0.3,0.5,0.6,0.5l0,0C36.2,19.2,36.4,18.9,36.4,18.6z"/>
			<path class="st2" d="M35.5,18.9l-0.4-3.4L34,15.6l0.4,3.4c0,0.3,0.3,0.5,0.6,0.5l0,0C35.3,19.5,35.5,19.2,35.5,18.9z"/>
			<path class="st2" d="M34.5,19.2l-0.4-3.4L33,15.9l0.4,3.4c0,0.3,0.3,0.5,0.6,0.5l0,0C34.3,19.8,34.5,19.5,34.5,19.2z"/>
		</g>
		<g>
			<path class="st2" d="M26.3,18.2l0.4-3.4l1.1,0.1l-0.4,3.4c0,0.3-0.3,0.5-0.6,0.5l0,0C26.5,18.8,26.3,18.5,26.3,18.2z"/>
			<path class="st2" d="M27.2,18.5l0.4-3.4l1.1,0.1l-0.4,3.4c0,0.3-0.3,0.5-0.6,0.5l0,0C27.4,19.1,27.2,18.8,27.2,18.5z"/>
			<path class="st2" d="M28.3,18.8l0.4-3.4l1.1,0.1l-0.4,3.4c0,0.3-0.3,0.5-0.6,0.5h0C28.5,19.3,28.2,19.1,28.3,18.8z"/>
		</g>
		<path class="st2" d="M36.1,13l-0.2-3l-1.4,0.1l0.3,3.6c0,0.2,0.2,0.4,0.4,0.4l0,0C35.7,14.1,36.1,13.6,36.1,13z"/>
		<path class="st2" d="M36,15.1l-0.2-3l-1.4,0.1l0.3,3.6c0,0.2,0.2,0.4,0.4,0.4h0C35.7,16.1,36.1,15.6,36,15.1z"/>
		<g>
			<path class="st3" d="M35.8,14.6L35.8,14.6c0.4,0,0.7-0.3,0.7-0.7v-0.3c0-0.4-0.3-0.7-0.7-0.7l0,0c-0.4,0-0.7,0.3-0.7,0.7v0.3
				C35.1,14.3,35.4,14.6,35.8,14.6z"/>
		</g>
		<g>
			<path class="st4" d="M31.2,19.3h0.2c2.5,0,4.5-2,4.5-4.5v-3.3c0-2.5-2-4.5-4.5-4.5h-0.2c-2.5,0-4.5,2-4.5,4.5v3.3
				C26.7,17.3,28.7,19.3,31.2,19.3z"/>
		</g>
		<path class="st5" d="M31.9,14.8v1c0,0.2,0.1,0.3,0.3,0.3h0c0.2,0,0.3-0.1,0.3-0.3v-1c0-0.2-0.1-0.3-0.3-0.3h0
			C32.1,14.5,31.9,14.6,31.9,14.8z"/>
		<g>
			<path class="st3" d="M26.8,14.7L26.8,14.7c0.4,0,0.7-0.3,0.7-0.7v-0.3c0-0.4-0.3-0.7-0.7-0.7h0c-0.4,0-0.7,0.3-0.7,0.7V14
				C26.1,14.4,26.4,14.7,26.8,14.7z"/>
		</g>
		<path class="st2" d="M27.4,13.1l1.4-2.7l-1.2-0.6L25.9,13c-0.1,0.2,0,0.4,0.2,0.5l0,0C26.6,13.8,27.2,13.6,27.4,13.1z"/>
		<path class="st2" d="M28.3,13.6l1.4-2.7l-1.2-0.6l-1.6,3.2c-0.1,0.2,0,0.4,0.2,0.5l0,0C27.5,14.3,28.1,14.1,28.3,13.6z"/>
		<path class="st2" d="M27,12.1l1.4-2.7l-1.2-0.6L25.5,12c-0.1,0.2,0,0.4,0.2,0.5l0,0C26.2,12.8,26.8,12.6,27,12.1z"/>
		<path class="st6" d="M26.4,13.1L26.4,13.1c0.2,0,0.3-0.1,0.4-0.3l0.5-2.2c0-0.2-0.1-0.3-0.3-0.4l0,0c-0.2,0-0.3,0.1-0.4,0.3
			l-0.5,2.2C26.1,12.9,26.2,13,26.4,13.1z"/>
		<path class="st0" d="M27.3,14.6L27.3,14.6c0.3,0,0.5-0.2,0.5-0.5v-3.4c0-0.3-0.2-0.5-0.5-0.5h0c-0.3,0-0.5,0.2-0.5,0.5v3.4
			C26.8,14.4,27,14.6,27.3,14.6z"/>
		
			<rect x="26.8" y="10.2" transform="matrix(-1 -4.486113e-11 4.486113e-11 -1 62.63 22.2888)" class="st0" width="9.1" height="1.9"/>
		<path class="st2" d="M29.8,7h3c1.7,0,3.1,1.4,3.1,3.1v0.3h-9.2v-0.3C26.7,8.4,28.1,7,29.8,7z"/>
	</g>
</g>
<g id="Pierna_x5F_D_x5F_B">
	<g>
		<g>
			<path class="st4" d="M27.7,54.1L27.7,54.1c0.8,0,1.4-0.6,1.4-1.4v-8c0-0.8-0.6-1.4-1.4-1.4h0c-0.8,0-1.4,0.6-1.4,1.4v8
				C26.2,53.4,26.9,54.1,27.7,54.1z"/>
		</g>
		<g>
			<path class="st4" d="M27.5,54.1H31c0.1,0,0.1,0,0.1-0.1v-1.5c0-0.1,0-0.1-0.1-0.1h-4.7c-0.1,0-0.1,0-0.1,0.1v0.3
				C26.2,53.5,26.8,54.1,27.5,54.1z"/>
		</g>
		<g>
			<path class="st4" d="M30.8,53.7h0.6c0.2,0,0.3-0.1,0.3-0.3l0,0c0-0.2-0.1-0.3-0.3-0.3h-0.6c-0.2,0-0.3,0.1-0.3,0.3l0,0
				C30.6,53.6,30.7,53.7,30.8,53.7z"/>
		</g>
		<g>
			<path class="st4" d="M30.7,53.1h0.6c0.1,0,0.2-0.1,0.2-0.2l0,0c0-0.1-0.1-0.2-0.2-0.2h-0.6c-0.1,0-0.2,0.1-0.2,0.2l0,0
				C30.6,53,30.6,53.1,30.7,53.1z"/>
		</g>
		<g>
			<path class="st4" d="M30.7,52.8h0.4c0.1,0,0.2-0.1,0.2-0.2v0c0-0.1-0.1-0.2-0.2-0.2h-0.4c-0.1,0-0.2,0.1-0.2,0.2v0
				C30.6,52.7,30.6,52.8,30.7,52.8z"/>
		</g>
		<g>
			<path class="st4" d="M26.4,52.4h4.3c0.1,0,0.2-0.1,0.2-0.2l0,0c0-0.1-0.1-0.2-0.2-0.2h-4.5v0.2C26.2,52.3,26.3,52.4,26.4,52.4z"
				/>
		</g>
		<g>
			<path class="st4" d="M29,51.4c0.4,0.4,0.9,0.7,1.5,0.8v0.6h-1.4c-0.8,0-1.4-0.6-1.4-1.4v-0.1H29z"/>
		</g>
		<path class="st7" d="M31.2,53.4h0.3c0.1,0,0.1-0.1,0.1-0.1l0,0c0-0.1-0.1-0.1-0.1-0.1h-0.3c0,0,0,0,0,0L31.2,53.4
			C31.1,53.4,31.1,53.4,31.2,53.4z"/>
		<path class="st7" d="M31,53h0.3c0.1,0,0.1-0.1,0.1-0.1l0,0c0-0.1-0.1-0.1-0.1-0.1H31c0,0,0,0,0,0L31,53C31,53,31,53,31,53z"/>
		<path class="st7" d="M30.9,52.6h0.2c0.1,0,0.1-0.1,0.1-0.1l0,0c0-0.1-0.1-0.1-0.1-0.1h-0.2c0,0,0,0,0,0L30.9,52.6
			C30.8,52.6,30.9,52.6,30.9,52.6z"/>
		<path class="st7" d="M30.6,52.3h0.1c0.1,0,0.1,0,0.1-0.1l0,0c0-0.1,0-0.1-0.1-0.1h-0.1c0,0,0,0,0,0L30.6,52.3
			C30.6,52.3,30.6,52.3,30.6,52.3z"/>
		<g>
			<path class="st4" d="M30.8,54.1h0.7c0.2,0,0.3-0.1,0.3-0.3l0,0c0-0.2-0.1-0.3-0.3-0.3h-0.7c-0.2,0-0.3,0.1-0.3,0.3l0,0
				C30.6,53.9,30.7,54.1,30.8,54.1z"/>
		</g>
		<path class="st7" d="M31.3,53.9h0.3c0.1,0,0.2-0.1,0.2-0.2l0,0c0-0.1-0.1-0.2-0.2-0.2h-0.3c0,0-0.1,0-0.1,0.1L31.3,53.9
			C31.3,53.9,31.3,53.9,31.3,53.9z"/>
	</g>
</g>
<g id="Pierna_x5F_I_x5F_B">
	<g>
		<g>
			<path class="st4" d="M35.1,54.1L35.1,54.1c0.8,0,1.4-0.6,1.4-1.4v-8c0-0.8-0.6-1.4-1.4-1.4h0c-0.8,0-1.4,0.6-1.4,1.4v8
				C33.6,53.4,34.3,54.1,35.1,54.1z"/>
		</g>
		<g>
			<path class="st4" d="M34.9,54.1h3.5c0.1,0,0.1,0,0.1-0.1v-1.5c0-0.1,0-0.1-0.1-0.1h-4.7c-0.1,0-0.1,0-0.1,0.1v0.3
				C33.6,53.5,34.2,54.1,34.9,54.1z"/>
		</g>
		<g>
			<path class="st4" d="M33.8,52.4h4.3c0.1,0,0.2-0.1,0.2-0.2l0,0c0-0.1-0.1-0.2-0.2-0.2h-4.5v0.2C33.6,52.3,33.7,52.4,33.8,52.4z"
				/>
		</g>
		<g>
			<path class="st4" d="M36.4,51.4c0.4,0.4,0.9,0.7,1.5,0.8v0.6h-1.4c-0.8,0-1.4-0.6-1.4-1.4v-0.1H36.4z"/>
		</g>
		<g>
			<path class="st4" d="M38.2,54.1H39c0.2,0,0.3-0.1,0.3-0.3l0,0c0-0.2-0.1-0.3-0.3-0.3h-0.7c-0.2,0-0.3,0.1-0.3,0.3l0,0
				C38,53.9,38.1,54.1,38.2,54.1z"/>
		</g>
		<g>
			<path class="st4" d="M38.2,53.7h0.6c0.2,0,0.3-0.1,0.3-0.3l0,0c0-0.2-0.1-0.3-0.3-0.3h-0.6c-0.2,0-0.3,0.1-0.3,0.3l0,0
				C38,53.6,38.1,53.7,38.2,53.7z"/>
		</g>
		<g>
			<path class="st4" d="M38.1,53.1h0.6c0.1,0,0.2-0.1,0.2-0.2l0,0c0-0.1-0.1-0.2-0.2-0.2h-0.6c-0.1,0-0.2,0.1-0.2,0.2l0,0
				C38,53,38,53.1,38.1,53.1z"/>
		</g>
		<g>
			<path class="st4" d="M38.1,52.8h0.4c0.1,0,0.2-0.1,0.2-0.2v0c0-0.1-0.1-0.2-0.2-0.2h-0.4c-0.1,0-0.2,0.1-0.2,0.2v0
				C38,52.7,38,52.8,38.1,52.8z"/>
		</g>
		<path class="st7" d="M38.7,53.9H39c0.1,0,0.2-0.1,0.2-0.2l0,0c0-0.1-0.1-0.2-0.2-0.2h-0.3c0,0-0.1,0-0.1,0.1L38.7,53.9
			C38.7,53.9,38.7,53.9,38.7,53.9z"/>
		<path class="st7" d="M38.6,53.4h0.3c0.1,0,0.1-0.1,0.1-0.1l0,0c0-0.1-0.1-0.1-0.1-0.1h-0.3c0,0,0,0,0,0L38.6,53.4
			C38.5,53.4,38.5,53.4,38.6,53.4z"/>
		<path class="st7" d="M38.4,53h0.3c0.1,0,0.1-0.1,0.1-0.1l0,0c0-0.1-0.1-0.1-0.1-0.1h-0.3c0,0,0,0,0,0L38.4,53
			C38.4,53,38.4,53,38.4,53z"/>
		<path class="st7" d="M38.3,52.6h0.2c0.1,0,0.1-0.1,0.1-0.1l0,0c0-0.1-0.1-0.1-0.1-0.1h-0.2c0,0,0,0,0,0L38.3,52.6
			C38.2,52.6,38.3,52.6,38.3,52.6z"/>
		<path class="st7" d="M38,52.3h0.1c0.1,0,0.1,0,0.1-0.1l0,0c0-0.1,0-0.1-0.1-0.1H38c0,0,0,0,0,0L38,52.3C38,52.3,38,52.3,38,52.3z"
			/>
	</g>
</g>
<g id="Boleadora_x5F_A_x5F_B">
	
		<rect x="36" y="34.4" transform="matrix(-0.9981 6.133800e-02 -6.133800e-02 -0.9981 74.8615 75.0512)" class="st8" width="0.6" height="8.6"/>
	<path class="st9" d="M36.6,44.7L36.6,44.7c0.6,0,1.1-0.6,1-1.2v0c0-0.6-0.6-1.1-1.2-1h0c-0.6,0-1.1,0.6-1,1.2v0
		C35.4,44.3,36,44.8,36.6,44.7z"/>
</g>
<g id="Boleadora_x5F_F">
	
		<rect x="36.7" y="34.3" transform="matrix(-0.975 0.2221 -0.2221 -0.975 81.6964 68.0702)" class="st10" width="0.6" height="8.6"/>
	<path class="st11" d="M38.3,44.6L38.3,44.6c0.6-0.1,1-0.7,0.8-1.3l0,0c-0.1-0.6-0.7-1-1.3-0.8l0,0c-0.6,0.1-1,0.7-0.8,1.3l0,0
		C37.1,44.3,37.7,44.7,38.3,44.6z"/>
</g>
<g id="Pierna_x5F_I_x5F_A">
	<g>
		<path class="st4" d="M35.1,46.1L35.1,46.1c0.8,0,1.4-0.6,1.4-1.4v-8c0-0.8-0.6-1.4-1.4-1.4h0c-0.8,0-1.4,0.6-1.4,1.4v8
			C33.6,45.4,34.3,46.1,35.1,46.1z"/>
	</g>
	<path class="st12" d="M36.2,44L36.2,44c0.2,0,0.3-0.1,0.3-0.3v-5.2c0-0.2-0.1-0.3-0.3-0.3h0c-0.2,0-0.3,0.1-0.3,0.3v5.2
		C35.9,43.9,36,44,36.2,44z"/>
	<path class="st12" d="M35.3,44L35.3,44c0.2,0,0.3-0.1,0.3-0.3v-5.2c0-0.2-0.1-0.3-0.3-0.3l0,0c-0.2,0-0.3,0.1-0.3,0.3v5.2
		C35,43.9,35.1,44,35.3,44z"/>
	<path class="st12" d="M34.2,44L34.2,44c0.2,0,0.3-0.1,0.3-0.3v-5.2c0-0.2-0.1-0.3-0.3-0.3l0,0c-0.2,0-0.3,0.1-0.3,0.3v5.2
		C33.9,43.9,34.1,44,34.2,44z"/>
</g>
<g id="Pierna_x5F_D_x5F_A">
	<g>
		<g>
			<path class="st4" d="M27.7,46.1L27.7,46.1c0.8,0,1.4-0.6,1.4-1.4v-8c0-0.8-0.6-1.4-1.4-1.4h0c-0.8,0-1.4,0.6-1.4,1.4v8
				C26.2,45.4,26.9,46.1,27.7,46.1z"/>
		</g>
		<path class="st12" d="M28.6,43.9L28.6,43.9c0.2,0,0.3-0.1,0.3-0.3v-5.2c0-0.2-0.1-0.3-0.3-0.3l0,0c-0.2,0-0.3,0.1-0.3,0.3v5.2
			C28.3,43.7,28.5,43.9,28.6,43.9z"/>
		<path class="st12" d="M27.6,43.9L27.6,43.9c0.2,0,0.3-0.1,0.3-0.3v-5.2c0-0.2-0.1-0.3-0.3-0.3l0,0c-0.2,0-0.3,0.1-0.3,0.3v5.2
			C27.3,43.7,27.4,43.9,27.6,43.9z"/>
		<path class="st12" d="M26.7,43.9L26.7,43.9c0.2,0,0.3-0.1,0.3-0.3v-5.2c0-0.2-0.1-0.3-0.3-0.3l0,0c-0.2,0-0.3,0.1-0.3,0.3v5.2
			C26.4,43.7,26.5,43.9,26.7,43.9z"/>
		<path class="st12" d="M29.5,43.9L29.5,43.9c0.2,0,0.3-0.1,0.3-0.3v-5.2c0-0.2-0.1-0.3-0.3-0.3h0c-0.2,0-0.3,0.1-0.3,0.3v5.2
			C29.2,43.7,29.3,43.9,29.5,43.9z"/>
	</g>
</g>
<g id="Ojos">
	<g>
		<g>
			<path class="st13" d="M33.5,14.4L33.5,14.4c0.3,0,0.6-0.3,0.6-0.6v0c0-0.3-0.3-0.6-0.6-0.6l0,0c-0.3,0-0.6,0.3-0.6,0.6v0
				C32.9,14.1,33.2,14.4,33.5,14.4z"/>
		</g>
		<g>
			<path class="st13" d="M30.7,14.4L30.7,14.4c0.3,0,0.6-0.3,0.6-0.6v0c0-0.3-0.3-0.6-0.6-0.6l0,0c-0.3,0-0.6,0.3-0.6,0.6v0
				C30.1,14.1,30.4,14.4,30.7,14.4z"/>
		</g>
	</g>
</g>
<g id="Boca">
	<g>
		<path class="st1" d="M31.8,17.6h1.1c0.2,0,0.4-0.2,0.4-0.4v0c0-0.2-0.2-0.4-0.4-0.4h-1.1c-0.2,0-0.4,0.2-0.4,0.4v0
			C31.3,17.4,31.5,17.6,31.8,17.6z"/>
		<path class="st5" d="M31.9,17.3h0.7c0.1,0,0.1-0.1,0.1-0.1l0,0c0-0.1-0.1-0.1-0.1-0.1h-0.7c-0.1,0-0.1,0.1-0.1,0.1l0,0
			C31.8,17.2,31.9,17.3,31.9,17.3z"/>
	</g>
</g>
<g id="Brazo_x5F_D_x5F_A">
	<g>
		<path class="st4" d="M29.8,22.8L29.8,22.8c0-0.8-0.6-1.4-1.4-1.4h-8c-0.8,0-1.4,0.6-1.4,1.4v0c0,0.8,0.6,1.4,1.4,1.4h8
			C29.2,24.2,29.8,23.5,29.8,22.8z"/>
	</g>
</g>
<g id="Brazo_x5F_I_x5F_A">
	<g>
		<path class="st4" d="M44,22.8L44,22.8c0-0.8-0.6-1.4-1.4-1.4h-8c-0.8,0-1.4,0.6-1.4,1.4v0c0,0.8,0.6,1.4,1.4,1.4h8
			C43.4,24.2,44,23.5,44,22.8z"/>
	</g>
</g>
<g id="Brazo_x5F_I_x5F_B">
	<g>
		<g>
			<path class="st4" d="M52,22.8L52,22.8c0-0.8-0.6-1.4-1.4-1.4h-8c-0.8,0-1.4,0.6-1.4,1.4v0c0,0.8,0.6,1.4,1.4,1.4h8
				C51.4,24.2,52,23.5,52,22.8z"/>
		</g>
		<g>
			<path class="st14" d="M50.5,24.2L50.5,24.2c0.8,0,1.5-0.7,1.5-1.5v0c0-0.8-0.7-1.5-1.5-1.5l0,0c-0.8,0-1.5,0.7-1.5,1.5v0
				C49,23.5,49.7,24.2,50.5,24.2z"/>
		</g>
	</g>
</g>
<g id="Brazo_x5F_D_x5F_B">
	<g>
		<g>
			<path class="st4" d="M21.8,22.8L21.8,22.8c0-0.8-0.6-1.4-1.4-1.4h-8c-0.8,0-1.4,0.6-1.4,1.4v0c0,0.8,0.6,1.4,1.4,1.4h8
				C21.2,24.2,21.8,23.5,21.8,22.8z"/>
		</g>
		<g>
			<path class="st14" d="M12.5,24.2L12.5,24.2c0.8,0,1.5-0.7,1.5-1.5v0c0-0.8-0.7-1.5-1.5-1.5h0c-0.8,0-1.5,0.7-1.5,1.5v0
				C11,23.5,11.7,24.2,12.5,24.2z"/>
		</g>
	</g>
</g>
<g id="Torso">
	<g>
		<g>
			<path class="st4" d="M31.4,38.5L31.4,38.5c2.8,0,5-2.3,5-5V23.3c0-1.1-0.9-2-2-2h-6c-1.1,0-2,0.9-2,2v10.2
				C26.3,36.3,28.6,38.5,31.4,38.5z"/>
		</g>
		
			<rect x="26.2" y="34.4" transform="matrix(-1 -4.488289e-11 4.488289e-11 -1 62.704 72.8357)" class="st15" width="10.2" height="4.1"/>
		<path class="st15" d="M35.7,35c0.2-0.2,0.5-0.4,0.7-0.6c-2.6-4.4-5.1-8.8-7.7-13.2c-0.2,0-0.5,0-0.7,0
			C30.6,25.8,33.2,30.4,35.7,35z"/>
		<path class="st16" d="M31.4,23.2c1.1,0,2-0.9,2-2h0.2c0,1.2-1,2.2-2.2,2.2c-1.2,0-2.2-1-2.2-2.2h0.2
			C29.5,22.3,30.3,23.2,31.4,23.2z"/>
		<path class="st17" d="M31.1,26.8h0.7c0.5,0,0.8-0.4,0.8-0.8v-1.4c0-0.7-0.5-1.2-1.2-1.2h0c-0.7,0-1.2,0.5-1.2,1.2V26
			C30.2,26.5,30.6,26.8,31.1,26.8z"/>
		<path class="st15" d="M33.7,43.2v-8.8h-3.7v8.8c0,0.6,0.5,1.1,1.1,1.1h1.5C33.2,44.3,33.7,43.8,33.7,43.2z"/>
		<g>
			<path class="st7" d="M34.1,25.5L34.1,25.5c0.2,0,0.3-0.1,0.3-0.3l0,0c0-0.2-0.1-0.3-0.3-0.3l0,0c-0.2,0-0.3,0.1-0.3,0.3l0,0
				C33.8,25.4,33.9,25.5,34.1,25.5z"/>
		</g>
		<g>
			<path class="st7" d="M28.6,25.5L28.6,25.5c0.2,0,0.3-0.1,0.3-0.3l0,0c0-0.2-0.1-0.3-0.3-0.3l0,0c-0.2,0-0.3,0.1-0.3,0.3l0,0
				C28.3,25.4,28.5,25.5,28.6,25.5z"/>
		</g>
		<g>
			<path class="st7" d="M31.3,33.1L31.3,33.1c0.2,0,0.3-0.1,0.3-0.3l0,0c0-0.2-0.1-0.3-0.3-0.3l0,0c-0.2,0-0.3,0.1-0.3,0.3l0,0
				C31,32.9,31.1,33.1,31.3,33.1z"/>
		</g>
		<path class="st0" d="M24.8,20.6c4.3-0.1,8.6-0.3,12.9-0.4c1.9,0.7,2.3,1,2.2,1.2c-0.1,0.4-1.5,0.2-4.3,0.6c-2,0.3-1.9,0.5-3.3,0.6
			c-2.1,0.1-3.7-0.3-4.1-0.4c-1-0.3-0.9-0.4-1.8-0.6c-1.9-0.4-3.4-0.1-3.4-0.3C23,21.1,23.3,21,24.8,20.6z"/>
		<path class="st18" d="M34.1,37.8h1.4c0.3,0,0.5-0.2,0.5-0.5v-1.9c0-0.3-0.2-0.5-0.5-0.5h-1.4c-0.3,0-0.5,0.2-0.5,0.5v1.9
			C33.6,37.6,33.9,37.8,34.1,37.8z"/>
		<path class="st18" d="M27.5,37.8h1.6c0.4,0,0.7-0.3,0.7-0.7v-1.5c0-0.4-0.3-0.7-0.7-0.7h-1.6c-0.4,0-0.7,0.3-0.7,0.7v1.5
			C26.8,37.5,27.1,37.8,27.5,37.8z"/>
		<path class="st18" d="M31.1,43.4h1.4c0.3,0,0.5-0.2,0.5-0.5v-8.5h-2.5v8.5C30.5,43.2,30.8,43.4,31.1,43.4z"/>
		<g>
			
				<rect x="34.8" y="35" transform="matrix(-1 -4.301238e-11 4.301238e-11 -1 69.9567 70.5415)" class="st19" width="0.3" height="0.6"/>
			
				<rect x="33.6" y="35.9" transform="matrix(-1 -4.608504e-11 4.608504e-11 -1 67.5884 72.4657)" class="st19" width="0.3" height="0.7"/>
			
				<rect x="31.9" y="34.4" transform="matrix(-1 -4.301238e-11 4.301238e-11 -1 64.0361 69.5054)" class="st20" width="0.3" height="0.7"/>
			
				<rect x="32.8" y="35.4" transform="matrix(-1 -4.608504e-11 4.608504e-11 -1 65.8123 71.4296)" class="st19" width="0.3" height="0.6"/>
			
				<rect x="30.5" y="35" transform="matrix(-1 -4.301238e-11 4.301238e-11 -1 61.3718 70.5415)" class="st20" width="0.3" height="0.6"/>
			
				<rect x="29.5" y="35.9" transform="matrix(-1 -4.301238e-11 4.301238e-11 -1 59.2996 72.3177)" class="st19" width="0.3" height="0.6"/>
			
				<rect x="28.2" y="35" transform="matrix(-1 -4.608504e-11 4.608504e-11 -1 56.6354 70.5415)" class="st19" width="0.3" height="0.6"/>
			
				<rect x="26.8" y="36.2" transform="matrix(-1 -4.608504e-11 4.608504e-11 -1 53.9711 72.9097)" class="st19" width="0.3" height="0.6"/>
			
				<rect x="28.5" y="37.2" transform="matrix(-1 -4.301238e-11 4.301238e-11 -1 57.2274 74.9819)" class="st19" width="0.3" height="0.6"/>
			
				<rect x="28" y="36.2" transform="matrix(-1 -4.301238e-11 4.301238e-11 -1 56.3394 72.9097)" class="st19" width="0.3" height="0.6"/>
			
				<rect x="34.4" y="37.2" transform="matrix(-1 -4.301238e-11 4.301238e-11 -1 69.0686 74.9819)" class="st19" width="0.3" height="0.6"/>
			
				<rect x="35.7" y="36.5" transform="matrix(-1 -4.301238e-11 4.301238e-11 -1 71.7328 73.5018)" class="st19" width="0.3" height="0.6"/>
			
				<rect x="32.2" y="37.8" transform="matrix(-1 -4.608504e-11 4.608504e-11 -1 64.6282 76.1661)" class="st20" width="0.3" height="0.6"/>
			
				<rect x="31.9" y="39.7" transform="matrix(-1 -4.301238e-11 4.301238e-11 -1 64.0361 80.0144)" class="st20" width="0.3" height="0.6"/>
			
				<rect x="32.8" y="40.7" transform="matrix(-1 -4.608504e-11 4.608504e-11 -1 65.8123 82.0866)" class="st20" width="0.3" height="0.6"/>
			
				<rect x="30.5" y="40.3" transform="matrix(-1 -4.301238e-11 4.301238e-11 -1 61.3718 81.1986)" class="st20" width="0.3" height="0.6"/>
			
				<rect x="32.5" y="41.6" transform="matrix(-1 -4.301238e-11 4.301238e-11 -1 65.2202 83.8628)" class="st20" width="0.3" height="0.6"/>
			
				<rect x="27.4" y="36.2" transform="matrix(-4.608510e-11 1 -1 -4.608510e-11 64.1805 9.0253)" class="st19" width="0.3" height="0.9"/>
			
				<rect x="29" y="36.4" transform="matrix(-4.608510e-11 1 -1 -4.608510e-11 66.1787 7.9152)" class="st19" width="0.3" height="1.3"/>
			
				<rect x="28.8" y="34.9" transform="matrix(-4.608510e-11 1 -1 -4.608510e-11 64.6986 6.731)" class="st19" width="0.3" height="1.6"/>
			
				<rect x="34.2" y="35" transform="matrix(-4.608510e-11 1 -1 -4.608510e-11 70.1011 1.3285)" class="st19" width="0.3" height="1.5"/>
			
				<rect x="32.2" y="34.5" transform="matrix(-4.608510e-11 1 -1 -4.608510e-11 67.5848 2.9567)" class="st20" width="0.3" height="1.5"/>
			
				<rect x="35.1" y="36.4" transform="matrix(-4.608510e-11 1 -1 -4.608510e-11 72.3953 1.9946)" class="st19" width="0.3" height="1.6"/>
			
				<rect x="32.1" y="40.7" transform="matrix(-4.608510e-11 1 -1 -4.608510e-11 73.7274 9.2473)" class="st20" width="0.3" height="1.6"/>
			
				<rect x="31.2" y="37.4" transform="matrix(-4.301289e-11 1 -1 -4.301289e-11 69.583 6.8791)" class="st20" width="0.3" height="1.6"/>
			
				<rect x="32.3" y="39" transform="matrix(-4.608510e-11 1 -1 -4.608510e-11 72.0253 7.1011)" class="st20" width="0.3" height="1.2"/>
			
				<rect x="32.3" y="36.3" transform="matrix(-4.301289e-11 1 -1 -4.301289e-11 69.361 4.4368)" class="st20" width="0.3" height="1.2"/>
			
				<rect x="31.6" y="36.8" transform="matrix(-1 -4.608504e-11 4.608504e-11 -1 63.444 74.0939)" class="st19" width="0.3" height="0.6"/>
			
				<rect x="30.5" y="39.7" transform="matrix(-1 -4.301238e-11 4.301238e-11 -1 61.3718 80.0144)" class="st20" width="0.3" height="0.6"/>
			
				<rect x="31.4" y="41.6" transform="matrix(-1 -4.301238e-11 4.301238e-11 -1 63.148 83.8628)" class="st20" width="0.3" height="0.6"/>
			
				<rect x="31.4" y="42.2" transform="matrix(-1 -4.301238e-11 4.301238e-11 -1 63.148 85.0469)" class="st20" width="0.3" height="0.6"/>
		</g>
		<path class="st21" d="M31.6,23.9c0,0.1,0,0.4,0.1,0.6c0.1,0.2,0.2,0.2,0.4,0.5c0.1,0.1,0.2,0.3,0.2,0.6c0,0.1,0,0.5-0.4,0.8
			c0,0-0.4,0.3-0.8,0.2c-0.4-0.1-0.5-0.4-0.6-0.7c0-0.1-0.1-0.4,0.1-0.5c0.1-0.1,0.2-0.1,0.2-0.1c0,0,0,0,0,0.1c0,0,0,0,0,0.1
			c0,0.1,0,0.1,0.1,0.1c0.1,0,0.1,0,0.2,0c0.1-0.1,0.1-0.2,0.1-0.3c0-0.1,0-0.2,0-0.3c0-0.1,0-0.1,0-0.2c0-0.1,0-0.1,0-0.2
			c0-0.1,0.1-0.1,0.2-0.2C31.4,24,31.5,24,31.6,23.9C31.6,23.9,31.6,23.9,31.6,23.9z"/>
	</g>
</g>
</svg>
